<svg width="400" height="400" viewBox="0 0 400 400" fill="none" xmlns="http://www.w3.org/2000/svg">
<g clip-path="url(#clip0_3_25)">
<rect width="400" height="400" fill="white"/>
<rect x="196" y="365" width="8" height="35" fill="#535353"/>
<rect x="196" y="-5" width="8" height="35" fill="#535353"/>
<rect x="280.286" y="344.559" width="8" height="35" transform="rotate(-30 280.286 344.559)" fill="#535353"/>
<rect x="95.2859" y="24.1299" width="8" height="35" transform="rotate(-30 95.2859 24.1299)" fill="#535353"/>
<rect x="343.059" y="284.714" width="8" height="35" transform="rotate(-60 343.059 284.714)" fill="#535353"/>
<rect x="22.6299" y="99.7141" width="8" height="35" transform="rotate(-60 22.6299 99.7141)" fill="#535353"/>
<rect x="347.059" y="117.214" width="8" height="35" transform="rotate(-120 347.059 117.214)" fill="#535353"/>
<rect x="26.6299" y="302.214" width="8" height="35" transform="rotate(-120 26.6299 302.214)" fill="#535353"/>
<rect x="287.214" y="54.4407" width="8" height="35" transform="rotate(-150 287.214 54.4407)" fill="#535353"/>
<rect x="102.214" y="374.87" width="8" height="35" transform="rotate(-150 102.214 374.87)" fill="#535353"/>
<rect x="367.5" y="204" width="8" height="35" transform="rotate(-90 367.5 204)" fill="#535353"/>
<rect x="-2.5" y="204" width="8" height="35" transform="rotate(-90 -2.5 204)" fill="#535353"/>
</g>
<defs>
<clipPath id="clip0_3_25">
<rect width="400" height="400" fill="white"/>
</clipPath>
</defs>
</svg>
